<svg width="176" height="62" viewBox="0 0 176 62" fill="none" xmlns="http://www.w3.org/2000/svg">
<path d="M122.5 16.5H114.5V17.5L117.5 19.5V42.5L114.5 43.5H124.5L122.5 42.2942V16.5Z" fill="black"/>
<path d="M132.5 25.5H125.5V26.5L127.5 28.5V42.2942L125.5 43.5H135L132.5 42.2942V25.5Z" fill="black"/>
<path d="M142.5 25.5H135.5V26.5L137.5 27.5V42.2942L135.5 43.5H144.5L142.5 42.2942V28.5H144.5C144.5 28.1667 144.9 27.5 146.5 27.5C148.1 27.5 148.5 28.1667 148.5 28.5V42.5L146.5 43.5H155.5L153.5 42.5V28.5C153.5 26.1 151.5 25.5 150.5 25.5H146.5C144.5 25.5 143.667 26.8333 143.5 27.5H142.5V25.5Z" fill="black"/>
<path d="M157.5 42.5L156 43.5H165.5L163.5 42.5V35.5H164.5L168.5 41.5V42.5L167.5 43.5H175.5V42.5L168.5 32.5V31.5L174.5 27V26H166.5V27L168.5 27.5V29.5L164.5 33.5H163.5V16.5H155.5V17.5L157.5 18.5V42.5Z" fill="black"/>
<path d="M122.5 16.5H114.5V17.5L117.5 19.5V42.5L114.5 43.5H124.5L122.5 42.2942V16.5Z" stroke="black"/>
<path d="M132.5 25.5H125.5V26.5L127.5 28.5V42.2942L125.5 43.5H135L132.5 42.2942V25.5Z" stroke="black"/>
<path d="M142.5 25.5H135.5V26.5L137.5 27.5V42.2942L135.5 43.5H144.5L142.5 42.2942V28.5H144.5C144.5 28.1667 144.9 27.5 146.5 27.5C148.1 27.5 148.5 28.1667 148.5 28.5V42.5L146.5 43.5H155.5L153.5 42.5V28.5C153.5 26.1 151.5 25.5 150.5 25.5H146.5C144.5 25.5 143.667 26.8333 143.5 27.5H142.5V25.5Z" stroke="black"/>
<path d="M157.5 42.5L156 43.5H165.5L163.5 42.5V35.5H164.5L168.5 41.5V42.5L167.5 43.5H175.5V42.5L168.5 32.5V31.5L174.5 27V26H166.5V27L168.5 27.5V29.5L164.5 33.5H163.5V16.5H155.5V17.5L157.5 18.5V42.5Z" stroke="black"/>
<path d="M1.5 16.5L28 1.5L55 17.5L46.5 21.5H43.5L28 12.5L11.5 21.5V26.5L26.5 17.5H29.5L41 24.5L31.5 30L28 27.5L3.5 41.5H1.5V16.5Z" fill="black"/>
<path d="M25 32.5L15 38L28 45.5L43.5 36.5H44.5V40.5L28 49.5L11.5 40L1.5 45.5L28 60.5L54.5 46V20L28 35L25 32.5Z" fill="black"/>
<path d="M72.5 25.5H65.5V26.5H67.5V27.5V42.5L65.5 43.5H75.5L72.5 42V25.5Z" fill="black"/>
<path d="M78.5 42.5L76.5 43.5H91.5C95.9 43.5 97.5 41.7634 97.5 39.5V35.5C97.5 31.9 92.8333 30.6667 90.5 30.5C93.7 30.5 95.5 29 95.5 26.5V24.5C95.5 21.7 94 20 91.5 19.5H76.5L78.5 20.5V42.5Z" fill="black"/>
<path d="M1.5 16.5L28 1.5L55 17.5L46.5 21.5H43.5L28 12.5L11.5 21.5V26.5L26.5 17.5H29.5L41 24.5L31.5 30L28 27.5L3.5 41.5H1.5V16.5Z" stroke="black"/>
<path d="M25 32.5L15 38L28 45.5L43.5 36.5H44.5V40.5L28 49.5L11.5 40L1.5 45.5L28 60.5L54.5 46V20L28 35L25 32.5Z" stroke="black"/>
<path d="M72.5 25.5H65.5V26.5H67.5V27.5V42.5L65.5 43.5H75.5L72.5 42V25.5Z" stroke="black"/>
<path d="M78.5 42.5L76.5 43.5H91.5C95.9 43.5 97.5 41.7634 97.5 39.5V35.5C97.5 31.9 92.8333 30.6667 90.5 30.5C93.7 30.5 95.5 29 95.5 26.5V24.5C95.5 21.7 94 20 91.5 19.5H76.5L78.5 20.5V42.5Z" stroke="black"/>
<path d="M104.5 25.5C101.3 25.5 99.8333 28.1667 99.5 29.5V40.5C99.5 42.9 102.5 44.5 104.5 44.5H109.5C110.7 44.5 113 42 113.5 40.5V38.5L110.5 41.5H107.5C105.1 41.5 104.5 39.5 104.5 38.5V32.5H113.5V28.5C113.5 26.5 110.833 25.6667 109.5 25.5H104.5Z" fill="black" stroke="black"/>
<path d="M104.5 28.5V31.5H109V28.5C109 27.8333 108.6 26.5 107 26.5C105.4 26.5 104.667 27.8333 104.5 28.5Z" fill="white" stroke="black"/>
<path d="M88.5 21H84.5V30H87.5C89.1 30 89.5 29 89.5 28.5V22.5C89.5 21.3 88.8333 21 88.5 21Z" fill="white"/>
<path d="M89.5 33H84.5V42H89.5C91.1 42 91.5 41 91.5 40.5V35.5C91.5 33.9 90.1667 33.1667 89.5 33Z" fill="white"/>
<path d="M88.5 21H84.5V30H87.5C89.1 30 89.5 29 89.5 28.5V22.5C89.5 21.3 88.8333 21 88.5 21Z" stroke="black"/>
<path d="M89.5 33H84.5V42H89.5C91.1 42 91.5 41 91.5 40.5V35.5C91.5 33.9 90.1667 33.1667 89.5 33Z" stroke="black"/>
<circle cx="70" cy="20" r="4" fill="black"/>
<circle cx="130" cy="19" r="4" fill="black"/>
</svg>
