<svg width="365" height="36" viewBox="0 0 365 36" fill="none" xmlns="http://www.w3.org/2000/svg">
<path d="M9.5 0.5H0.5V35.5H9.5V0.5Z" fill="#fff"/>
<path d="M60.5 7.5L65.5 0.5H31.5C24.7 0.5 20.6667 7.16667 19.5 10.5V23.5C19.5 28.3 26.5 34 34.5 35.5H59.5L64.5 27.5H35.5C25.5 27.5 27 7.5 35.5 7.5H60.5Z" fill="#fff"/>
<path d="M72.5 7.5V0.5H113.5L108.5 7.5H72.5Z" fill="#fff"/>
<path d="M112.5 13.5H72.5V21.5H106.5L112.5 13.5Z" fill="#fff"/>
<path d="M72.5 28.5H113.5L108.5 35.5H72.5V28.5Z" fill="#fff"/>
<path d="M127.5 0.5L122.5 7.5H158.5C162.1 7.5 162.5 10 162.5 12.5V13.5C162.5 15.9 161 18.5 158.5 18.5H121.5V35.5H131.5V25.5H151.5L159.5 35.5H172.5L160 24C163.2 24 168.5 23 171.5 18.5V8.5C171.5 4.9 166 1 161.5 0.5H127.5Z" fill="#fff"/>
<path d="M181.5 35.5V0.5H191.5V35.5H181.5Z" fill="#fff"/>
<path d="M211.5 0.5H199.5L224.5 35.5H232.5L257.5 0.5H246.5L228.5 25.5L211.5 0.5Z" fill="#fff"/>
<path d="M265.5 7.5V0.5H307.5L301.5 7.5H265.5Z" fill="#fff"/>
<path d="M265.5 21.5V13.5H305.5L299.5 21.5H265.5Z" fill="#fff"/>
<path d="M265.5 35.5V28.5H307.5L301.5 35.5H265.5Z" fill="#fff"/>
<path d="M318.5 0.5L312.5 7.5H348.5C350.9 7.5 351.5 9.5 351.5 10.5V15.5C351.5 17.5 349.167 18.3333 348 18.5H311.5V35.5H321.5V25.5H341.5L349.5 35.5H363L350.5 23.5C356.9 23.5 361 21.5 361.5 17.5V8.5C361.5 4.5 358 0.5 352.5 0.5H318.5Z" fill="#fff"/>
<path d="M9.5 0.5H0.5V35.5H9.5V0.5Z" stroke="#fff"/>
<path d="M60.5 7.5L65.5 0.5H31.5C24.7 0.5 20.6667 7.16667 19.5 10.5V23.5C19.5 28.3 26.5 34 34.5 35.5H59.5L64.5 27.5H35.5C25.5 27.5 27 7.5 35.5 7.5H60.5Z" stroke="#fff"/>
<path d="M72.5 7.5V0.5H113.5L108.5 7.5H72.5Z" stroke="#fff"/>
<path d="M112.5 13.5H72.5V21.5H106.5L112.5 13.5Z" stroke="#fff"/>
<path d="M72.5 28.5H113.5L108.5 35.5H72.5V28.5Z" stroke="#fff"/>
<path d="M127.5 0.5L122.5 7.5H158.5C162.1 7.5 162.5 10 162.5 12.5V13.5C162.5 15.9 161 18.5 158.5 18.5H121.5V35.5H131.5V25.5H151.5L159.5 35.5H172.5L160 24C163.2 24 168.5 23 171.5 18.5V8.5C171.5 4.9 166 1 161.5 0.5H127.5Z" stroke="#fff"/>
<path d="M181.5 35.5V0.5H191.5V35.5H181.5Z" stroke="#fff"/>
<path d="M211.5 0.5H199.5L224.5 35.5H232.5L257.5 0.5H246.5L228.5 25.5L211.5 0.5Z" stroke="#fff"/>
<path d="M265.5 7.5V0.5H307.5L301.5 7.5H265.5Z" stroke="#fff"/>
<path d="M265.5 21.5V13.5H305.5L299.5 21.5H265.5Z" stroke="#fff"/>
<path d="M265.5 35.5V28.5H307.5L301.5 35.5H265.5Z" stroke="#fff"/>
<path d="M318.5 0.5L312.5 7.5H348.5C350.9 7.5 351.5 9.5 351.5 10.5V15.5C351.5 17.5 349.167 18.3333 348 18.5H311.5V35.5H321.5V25.5H341.5L349.5 35.5H363L350.5 23.5C356.9 23.5 361 21.5 361.5 17.5V8.5C361.5 4.5 358 0.5 352.5 0.5H318.5Z" stroke="#fff"/>
</svg>
